<?xml version="1.0" encoding="UTF-8"?>
<svg id="Layer_1" data-name="Layer 1" xmlns="http://www.w3.org/2000/svg" viewBox="0 0 595.18 286.96">
  <defs>
    <style>
      .cls-1 {
        fill: #fff;
      }
    </style>
  </defs>
  <path class="cls-1" d="M265.14,191.24c-8.55,1.3-11.64-35.62-11.77-50.26l-.8-96.22h-50.03S203.34.1,203.34.1h-21.56s-1.03,44.66-1.03,44.66l-34.69-.02-.07,21.35h33.87c-.8,13.67-1.82,26.4-3.42,39.47l-22.87-14.09-10.3,16.95,29.25,19.62c-5.63,23.38-14.45,45.32-31.81,62.38l-.93-11.89-56.01,5.58.11-27.39,48.76.02.03-18.23-48.87-.04v-22.62s-21.57.02-21.57.02l-.06,22.63H12.47s.09,18.24.09,18.24l49.68.03-.07,29.59-60.24,5.25,1.97,20.23,126.8-13.26c-.4,1.26-.77,2.11-.4,2.38l1.54,1.12c4.77,3.49,8.94,8.85,12.98,13.96,24.69-19.21,37.68-43.69,46.51-73.57,9.27,7.5,17.07,14.55,25.26,22.38l11.15-19.66c-10.12-9.65-20.76-17.97-31.75-26.15,2.82-17.68,4.5-34.86,5.59-52.92h29.51s.98,59.76.98,59.76c.27,16.68,1.82,32.75,4.64,49.11,1.66,9.6,4.33,18.61,9.17,26.77,6.1,10.29,19.6,14.48,29.1,6.63,9.32-7.71,9.67-33.96,10.66-49.01l-14.92-13.62c-.1,13.77-.59,44.74-5.59,45.5Z"/>
  <path class="cls-1" d="M578.73,217.05l-2.8,36.19c-.24,3.16-2.37,7.65-4.45,9.53-14.47,1.25-19.07-16.94-22.42-31.24-2.6-17.24-4.56-33.84-4.76-51.51l-.84-74.45h-202.33s0,19.19,0,19.19h178.46c.61,39.52.26,78.41,7.73,116.55,2.5,9.34,5.13,17.95,9.78,26.35,8.38,15.13,26.17,22.75,42.53,16.34,6.23-2.44,8.79-9.14,11.08-15.06,2.76-12.31,4.06-24.62,4.49-37.43-6.66-4.67-11.69-8.97-16.45-14.45Z"/>
  <path class="cls-1" d="M427.28,185.4v-54.29s-22.63,0-22.63,0v54.29s-84.03,0-84.03,0l.08,19.11,68.23.05c-21.45,25.17-47.28,44.66-76.2,58.03,5.81,5.55,10.46,11.16,15.22,17.82,30.04-16.05,55.18-38.51,76.61-64.25l.13,70.07,22.58-.07v-81.64s81.6.01,81.6.01l-.06-19.14h-81.54Z"/>
  <path class="cls-1" d="M326.43,109.3c21.29-17.42,38.59-38.16,53.46-61.2h203.28s.01-19,.01-19h-191.84s10.98-22.46,10.98-22.46l-23.57-6.63c-15.4,35.96-38.76,67.25-69.73,90.93,6.5,6.1,11.96,11.99,17.41,18.37Z"/>
  <polygon class="cls-1" points="5 64.1 5.13 82.19 140.33 82.18 140.35 64.1 83.8 64.1 83.79 40.26 130.03 40.26 130.02 22.69 83.88 22.69 83.76 1.89 62.27 1.9 62.09 22.7 16.66 22.69 16.66 40.25 62.22 40.29 62.19 64.11 5 64.1"/>
  <polygon class="cls-1" points="373.02 86.1 559.58 86.1 559.6 67.1 373.02 67.1 373.02 86.1"/>
  <path class="cls-1" d="M219.72,229.3c14.98,18.09,28.21,36.65,39.18,57.67l23.4-8.63c-12-21.58-25.11-38.44-39.87-56.59l-22.71,7.56Z"/>
  <path class="cls-1" d="M1.26,277.76l22.05,9.14c17.48-17.35,29.09-36.79,38.5-58.41l-22.57-5.7c-9.2,21.68-21.44,39.4-37.98,54.97Z"/>
  <path class="cls-1" d="M428.5,227.86c21.85,13.09,42.96,26.84,62.61,44.08l15.28-14.94c-20.21-16.33-41.13-29.68-63.24-42.18l-14.65,13.04Z"/>
  <path class="cls-1" d="M155.87,230.21c7.17,17.29,13.01,34.3,17.09,53.23l23.28-4.7c-4.09-18.24-10.79-35.44-18.43-52.44l-21.94,3.9Z"/>
  <path class="cls-1" d="M91.98,230.8c3.36,18.01,5.46,35.57,5.95,53.36l23.6-3.3c-1.14-18.58-3.46-35.03-7.3-52.05l-22.25,1.99Z"/>
  <path class="cls-1" d="M472.36,134.46c-8.63,15.35-17.72,28.83-28.96,43.02l16.1,6.86,34.16-41.94-21.3-7.94Z"/>
  <path class="cls-1" d="M60.34,100.99l-13.33-14.11c-15.39,11.15-30.21,20.24-47.01,29.22l11.01,12.51c17.77-8.53,33.1-16.84,49.32-27.62Z"/>
  <path class="cls-1" d="M359.91,134.3l-18.03,7.51c10.42,12.98,18.62,25.87,24.2,40.26l19.45-8.61c-6.45-15.48-15.49-27.82-25.61-39.17Z"/>
  <path class="cls-1" d="M87.53,100.67c16.7,8.66,31.57,17.5,46.89,27.98l10.1-14.9c-15.46-10.08-30.94-18.3-47.44-25.99l-9.55,12.91Z"/>
</svg>