<?xml version="1.0" encoding="UTF-8"?>
<svg id="Layer_1" data-name="Layer 1" xmlns="http://www.w3.org/2000/svg" viewBox="0 0 990 747.82">
  <path d="M0,0v508h990V0H0ZM288.01,313.75l-.16,101.14c-.02,10.36-3.3,19.8-9.63,27.25-7.22,7.62-16.64,10.24-27.1,11.47l-75.47.08-7.29-31.92,69.66,1.77c8.84-1.17,16.4-6.96,16.42-16.47l.15-93.33H61.83s-.11-31.46-.11-31.46h192.83s.02-73.04.02-73.04H98.97s0-31.9,0-31.9h155.58s.02-72.52.02-72.52c-51.31,3.86-102.27,5.72-154.63,5.85l-10.09-29.65c58.51-.16,115.66-2.05,173.55-7.54,50.87-4.81,100.6-12.07,150.3-23.92l15.89,27.78c-46.92,12.35-93.52,19.84-141.6,24.7v75.31s143-.01,143-.01v31.91s-143,0-143,0v73.05s176.29-.02,176.29-.02l.14,31.47h-176.42ZM587.84,231.04c-.25,38.44-5.4,75.34-13.93,113.4-9.02,39.17-22.02,75.5-40.98,111.14l-25.61-22.21c15.6-28.68,26.41-58.91,34.06-91.01,8.91-39.46,13.74-78.7,13.8-119.43l.24-159.94h321.96s.03,112.66.03,112.66h-289.21s-.36,55.38-.36,55.38ZM885.58,444.56c-9.15,4.36-19.13,6.31-29.67,6.31h-111.76c-9.69-.01-18.06-4.12-24.34-10.69-4.74-6.78-7.69-14.63-7.73-23.2l-.18-42.65-115.1,10.3-.09-28.8,115.22-10.75-.02-37.54-94.62,8.49v-28.33s94.63-8.55,94.63-8.55v-36.61s-92.77,6.28-92.77,6.28l-9.56-27.03c48.67-2.29,95.37-6,142.97-12.17,33.06-4.46,64.9-9.81,97.38-17.5l15.11,25.6c-39.48,8.83-79.18,15.82-120.31,21.14l-.02,37.57,128.25-11.66.06,27.91-128.27,11.66-.08,37.55,156.87-14.34.12,29.25-156.96,14.33.16,37.77c.03,7.1,5.3,12.26,12.16,11.97l90.94-.02c5.03,0,9.78-1.18,14.49-2.22,4.29-1.96,7.19-4.76,9.36-8.98,3.4-10.01,5.04-19.85,6.05-31.04l28.78,9.58c-1.93,17.96-5.82,49.1-21.07,56.37Z" style="fill: #fff;"/>
  <g>
    <path d="M281,574.53v-73.05s143,0,143,0v-31.91s-142.99.01-142.99.01v-75.31c48.07-4.86,94.66-12.35,141.59-24.7l-15.89-27.78c-49.7,11.85-99.43,19.11-150.3,23.92-57.89,5.49-115.04,7.38-173.55,7.54l10.09,29.65c52.37-.13,103.33-2,154.63-5.85l-.02,72.53H91.98s0,31.9,0,31.9h155.61s-.02,73.04-.02,73.04H54.73s.11,31.47.11,31.47h192.76s-.15,93.31-.15,93.31c-.02,9.5-7.58,15.3-16.42,16.47l-69.66-1.77,7.29,31.92,75.47-.08c10.45-1.23,19.88-3.85,27.1-11.47,6.33-7.45,9.61-16.89,9.63-27.25l.16-101.14h176.42s-.14-31.46-.14-31.46l-176.3.02Z"/>
    <path d="M870.88,670.83c-1.01,11.19-2.66,21.03-6.05,31.04-2.17,4.22-5.07,7.02-9.36,8.98-4.71,1.04-9.46,2.22-14.49,2.22l-90.94.02c-6.86.29-12.13-4.87-12.16-11.97l-.16-37.77,156.96-14.33-.12-29.25-156.87,14.34.08-37.55,128.27-11.66-.06-27.91-128.25,11.66.02-37.57c41.13-5.32,80.82-12.31,120.31-21.14l-15.11-25.6c-32.48,7.69-64.32,13.05-97.38,17.5-47.6,6.17-94.3,9.88-142.97,12.17l9.56,27.03,92.77-6.28v36.61s-94.63,8.55-94.63,8.55v28.33s94.63-8.49,94.63-8.49l.02,37.54-115.22,10.75.09,28.8,115.1-10.3.18,42.65c.04,8.57,2.99,16.42,7.73,23.2,6.29,6.57,14.66,10.67,24.34,10.67h111.76c10.53.01,20.52-1.94,29.67-6.3,15.25-7.27,19.14-38.41,21.07-56.37l-28.78-9.58Z"/>
    <path d="M870.39,355.22h-321.96s-.24,159.93-.24,159.93c-.06,40.74-4.88,79.98-13.8,119.43-7.64,32.1-18.46,62.34-34.06,91.01l25.61,22.21c18.96-35.64,31.96-71.97,40.98-111.14,8.53-38.06,13.68-74.97,13.93-113.4l.36-55.39h289.21s-.03-112.65-.03-112.65ZM837,437.79h-255.76s-.06-51.56-.06-51.56h255.84s-.02,51.56-.02,51.56Z"/>
  </g>
</svg>